<?xml version="1.0" encoding="utf-8"?>
<!-- Generator: Adobe Illustrator 25.0.0, SVG Export Plug-In . SVG Version: 6.00 Build 0)  -->
<svg version="1.1" id="Layer_1" xmlns="http://www.w3.org/2000/svg" xmlns:xlink="http://www.w3.org/1999/xlink" x="0px" y="0px"
	 viewBox="0 0 110 28" style="enable-background:new 0 0 110 28;" xml:space="preserve">
<style type="text/css">
	.st0{fill:#FF9100;}
	.st1{display:none;}
	.st2{display:inline;fill:#FFA910;}
	.st3{display:inline;fill:#FFFFFF;}
	.st4{fill:#FFFFFF;}
</style>
<path class="st0" d="M105.06,28H48.94C46.21,28,44,25.79,44,23.06V4.94C44,2.21,46.21,0,48.94,0h56.12c2.73,0,4.94,2.21,4.94,4.94
	v18.12C110,25.79,107.79,28,105.06,28z"/>
<g>
	<g class="st1">
		<path class="st2" d="M1.23,3.04h1.99v4.66L3.1,10.45h0.07c1.18-1.3,2.54-2.28,4.34-2.28c2.76,0,4.03,1.63,4.03,4.7v7.25H9.56
			v-6.98c0-2.21-0.77-3.24-2.66-3.24c-1.39,0-2.33,0.7-3.67,2.09v8.14H1.23V3.04z"/>
		<path class="st2" d="M20.96,10.07h-5.4V8.46h7.39v11.67h-1.99V10.07z M20.17,4.48c0-0.91,0.67-1.54,1.58-1.54s1.58,0.62,1.58,1.54
			c0,0.94-0.67,1.54-1.58,1.54S20.17,5.41,20.17,4.48z"/>
		<path class="st2" d="M29.02,8.58l1.68-0.12h4.37v1.61h-6.05V8.58z M30.61,6.64c0-2.38,1.08-3.89,3.43-3.89
			c0.72,0,1.42,0.17,1.94,0.38l-0.41,1.54c-0.46-0.22-0.91-0.31-1.32-0.31c-1.1,0-1.66,0.77-1.66,2.28v13.49h-1.99V6.64z
			 M37.16,4.48c0-0.91,0.67-1.54,1.58-1.54s1.58,0.62,1.58,1.54c0,0.94-0.67,1.54-1.58,1.54S37.16,5.41,37.16,4.48z M37.73,8.46
			h1.99v11.67h-1.99V8.46z"/>
		<path class="st3" d="M47.63,7.45h-4.69V4.49h12.92v2.97h-4.69v12.67h-3.54V7.45z"/>
		<path class="st3" d="M58.08,15.57V8.22h3.53v6.9c0,1.58,0.42,2.29,1.74,2.29c0.88,0,1.5-0.31,2.31-1.36V8.22h3.53v11.91h-2.89
			l-0.25-1.71h-0.1c-1.06,1.21-2.3,2-4.02,2C59.23,20.42,58.08,18.58,58.08,15.57z"/>
		<path class="st3" d="M72.73,8.22h2.88l0.25,1.59h0.1c1.03-1.01,2.34-1.88,4.12-1.88c2.69,0,3.88,1.84,3.88,4.84v7.35h-3.53v-6.9
			c0-1.58-0.46-2.29-1.75-2.29c-0.94,0-1.58,0.44-2.41,1.24v7.95h-3.53V8.22z"/>
		<path class="st3" d="M86.72,14.17c0-3.9,3.01-6.23,6.2-6.23c3.67,0,5.61,2.48,5.61,5.71c0,0.65-0.1,1.29-0.15,1.58h-9.03v-2.37
			h6.65l-0.56,0.67c0-1.91-0.83-2.92-2.4-2.92c-1.75,0-2.89,1.18-2.89,3.55c0,2.47,1.34,3.56,3.66,3.56c1.08,0,2.01-0.29,3.07-0.83
			l1.17,2.13c-1.36,0.87-3.12,1.39-4.72,1.39C89.61,20.42,86.72,18.12,86.72,14.17z"/>
	</g>
</g>
<g>
	<path class="st0" d="M0,5.05h2.09v4.89l-0.13,2.9h0.08c1.24-1.36,2.67-2.39,4.56-2.39c2.9,0,4.23,1.71,4.23,4.94V23H8.75v-7.33
		c0-2.32-0.81-3.4-2.8-3.4c-1.46,0-2.44,0.73-3.86,2.19V23H0V5.05z"/>
	<path class="st0" d="M20.72,12.44h-5.67v-1.69h7.76V23h-2.09V12.44z M19.88,6.56c0-0.96,0.71-1.61,1.66-1.61s1.66,0.66,1.66,1.61
		c0,0.98-0.71,1.61-1.66,1.61S19.88,7.55,19.88,6.56z"/>
	<path class="st0" d="M39.39,4.95c-0.96,0-1.66,0.66-1.66,1.62c0,0.98,0.7,1.61,1.66,1.61c0.97,0,1.67-0.63,1.67-1.61
		C41.06,5.61,40.35,4.95,39.39,4.95z M38.33,10.75V23h2.1V10.75H38.33z"/>
	<path class="st0" d="M32.94,8.83v1.91h2.59v1.69h-2.59V23h-2.09V12.44h-1.67v-1.56l1.67-0.12V8.83c0-2.5,1.13-4.08,3.6-4.08
		c0.76,0,1.48,0.18,2.04,0.4l-0.43,1.62c-0.47-0.23-0.96-0.33-1.38-0.33C33.52,6.44,32.94,7.25,32.94,8.83z"/>
	<path class="st4" d="M51.27,8.51H46V5.17h14.53v3.34h-5.27v14.26h-3.98V8.51z"/>
	<path class="st4" d="M64.06,17.64V9.37h2.95v7.76c1.03,1.78,1.5,2.57,2.98,2.57c0.99,0,1.68-0.35,2.6-1.53V9.37h3.98v13.39h-3.25
		l-0.29-1.92h-0.11c-1.19,1.36-2.59,2.25-4.52,2.25C65.36,23.09,64.06,21.02,64.06,17.64z"/>
	<path class="st4" d="M79.51,9.37h3.24l0.29,1.79h0.11c1.16-1.14,2.64-2.11,4.63-2.11c3.03,0,4.36,2.07,4.36,5.45v8.27h-3.97v-7.76
		c0-1.78-0.51-2.57-1.96-2.57c-1.06,0-1.78,0.49-2.71,1.4v8.94h-3.98V9.37z"/>
	<path class="st4" d="M108.52,15.48c0-3.64-2.18-6.43-6.31-6.43c-3.59,0-6.96,2.63-6.96,7.02c0,4.44,3.25,7.03,7.42,7.03
		c1.79,0,3.78-0.6,5.31-1.57l-1.32-2.38c-1.19,0.6-2.24,0.92-3.45,0.92c-2.28,0-3.73-0.94-4.05-3.06h9.19
		C108.41,16.92,108.52,16.2,108.52,15.48z M99.22,14.75c0.37-1.79,1.52-2.68,3.13-2.68c1.59,0,2.51,0.91,2.67,2.68H99.22z"/>
</g>
</svg>
