<?xml version="1.0" encoding="utf-8"?>
<!-- Generator: Adobe Illustrator 25.0.0, SVG Export Plug-In . SVG Version: 6.00 Build 0)  -->
<svg version="1.1" id="Layer_1" xmlns="http://www.w3.org/2000/svg" xmlns:xlink="http://www.w3.org/1999/xlink" x="0px" y="0px"
	 viewBox="0 0 24 24" style="enable-background:new 0 0 24 24;" xml:space="preserve">
<path d="M12.92,6.69l2.66-1.6l4.26,7.1L7.42,19.64l-4.26-7.1l2.66-1.6c0.08,0.57,0.28,1.13,0.59,1.66c1.27,2.12,4.03,2.81,6.15,1.54
	s2.81-4.03,1.54-6.15C13.79,7.46,13.38,7.03,12.92,6.69z M17.68,6.24l-0.44,0.27l2.13,3.55l0.44-0.27c0.41-0.24,0.54-0.78,0.3-1.18
	l-1.24-2.07C18.62,6.13,18.09,6,17.68,6.24z M12.92,8.7c0.88,1.47,0.4,3.38-1.06,4.26c-1.47,0.88-3.38,0.41-4.26-1.06
	S7.19,8.51,8.66,7.63C10.13,6.75,12.04,7.23,12.92,8.7z M11.56,9.11l-1.18,0.71L9.66,8.64L9.07,8.99l0.71,1.18L8.6,10.89l0.36,0.59
	l1.18-0.71l0.71,1.18l0.59-0.36l-0.71-1.18l1.18-0.71L11.56,9.11z"/>
<g>
	<path d="M12,24C5.38,24,0,18.62,0,12S5.38,0,12,0s12,5.38,12,12S18.62,24,12,24z M12,1.23C6.06,1.23,1.23,6.06,1.23,12
		S6.06,22.77,12,22.77S22.77,17.94,22.77,12S17.94,1.23,12,1.23z"/>
</g>
</svg>
