<?xml version="1.0" encoding="utf-8"?>
<!-- Generator: Adobe Illustrator 25.0.0, SVG Export Plug-In . SVG Version: 6.00 Build 0)  -->
<svg version="1.1" id="Layer_1" xmlns="http://www.w3.org/2000/svg" xmlns:xlink="http://www.w3.org/1999/xlink" x="0px" y="0px"
	 viewBox="0 0 24 24" style="enable-background:new 0 0 24 24;" xml:space="preserve">
<style type="text/css">
	.st0{fill-rule:evenodd;clip-rule:evenodd;}
</style>
<path class="st0" d="M10.76,9.97V2.29l6.27,5.49l-4.38,3.9l4.38,3.94l-6.27,5.49v-7.72l-3.65,3.3l-1.05-1.16l4.26-3.85L6.06,7.83
	l1.05-1.16L10.76,9.97z M12.33,17.65l2.34-2.05l-2.34-2.11L12.33,17.65z M12.33,9.86l2.33-2.07l-2.33-2.04V9.86z"/>
<g>
	<path d="M12,24C5.38,24,0,18.62,0,12S5.38,0,12,0s12,5.38,12,12S18.62,24,12,24z M12,1.23C6.06,1.23,1.23,6.06,1.23,12
		S6.06,22.77,12,22.77S22.77,17.94,22.77,12S17.94,1.23,12,1.23z"/>
</g>
</svg>
