<?xml version="1.0" encoding="utf-8"?>
<!-- Generator: Adobe Illustrator 25.0.0, SVG Export Plug-In . SVG Version: 6.00 Build 0)  -->
<svg version="1.1" id="Layer_1" xmlns="http://www.w3.org/2000/svg" xmlns:xlink="http://www.w3.org/1999/xlink" x="0px" y="0px"
	 viewBox="0 0 24 24" style="enable-background:new 0 0 24 24;" xml:space="preserve">
<path d="M19.23,6.93l-1.04-1.25L16,7.49c-0.99-1.65-2.25-3.5-3.72-5.67C8.52,7.38,6.1,10.86,6.1,14.24c0,0.45,0.06,0.88,0.15,1.3
	l-2.47,2.03l1.04,1.25C4.82,18.82,19.23,6.93,19.23,6.93z M7.65,14.38l-0.01-0.14c0-2.53,1.81-5.46,4.63-9.66
	c0.97,1.45,1.81,2.73,2.51,3.91C14.79,8.49,7.65,14.38,7.65,14.38z M17.25,9.77c0.77,1.6,1.21,3.05,1.21,4.47
	c0,3.38-2.76,6.12-6.18,6.12c-2.01,0-3.79-0.96-4.92-2.43l1.19-0.98c0.84,1.13,2.2,1.87,3.73,1.87c2.56,0,4.63-2.05,4.63-4.58
	c0-1.06-0.33-2.19-0.9-3.45C16.01,10.79,17.25,9.77,17.25,9.77z"/>
<g>
	<path d="M12,24C5.38,24,0,18.62,0,12S5.38,0,12,0s12,5.38,12,12S18.62,24,12,24z M12,1.23C6.06,1.23,1.23,6.06,1.23,12
		S6.06,22.77,12,22.77S22.77,17.94,22.77,12S17.94,1.23,12,1.23z"/>
</g>
</svg>
