<?xml version="1.0" encoding="utf-8"?>
<!-- Generator: Adobe Illustrator 25.0.0, SVG Export Plug-In . SVG Version: 6.00 Build 0)  -->
<svg version="1.1" id="Layer_1" xmlns="http://www.w3.org/2000/svg" xmlns:xlink="http://www.w3.org/1999/xlink" x="0px" y="0px"
	 viewBox="0 0 24 24" style="enable-background:new 0 0 24 24;" xml:space="preserve">
<path d="M1.65,12L0,14.08l2.27,1.4L1.45,18l2.62,0.55l0.1,2.64l2.66-0.36l1.01,2.45l2.37-1.24L12,24l1.8-1.96l2.37,1.24l1.01-2.45
	l2.65,0.36l0.1-2.64L22.55,18l-0.82-2.51l2.27-1.4L22.35,12L24,9.92l-2.27-1.4L22.55,6l-2.62-0.55l-0.1-2.64l-2.65,0.36l-1.01-2.45
	L13.8,1.96L12,0l-1.8,1.96L7.83,0.72L6.82,3.17L4.17,2.81l-0.1,2.64L1.45,6l0.83,2.51L0,9.92C0,9.92,1.65,12,1.65,12z M7.68,11.33
	C7.42,11.25,7,11.08,7,10.58c0-0.34,0.25-0.78,1.14-0.75c0.61,0.02,1.83-0.1,2.49-0.44C10.17,7.56,10.28,5,11.47,5
	c0.8,0,0.95,0.9,1.19,1.73c0.86,2.99,2.58,3.53,4.34,3.8v4.96c-3.34,0-4.25,1.5-6.75,1.5c-1.6,0-2.43-0.87-2.43-1.33
	c0-0.17,0.14-0.29,0.48-0.31c0.41-0.03,0.37-0.41-0.02-0.48c-0.63-0.12-0.91-0.46-0.91-0.77c0-0.27,0.2-0.51,0.55-0.59
	c0.42-0.1,0.33-0.38-0.02-0.41c-0.57-0.05-0.84-0.38-0.84-0.7c0-0.28,0.21-0.55,0.63-0.61C8.12,11.74,7.98,11.43,7.68,11.33z"/>
</svg>
