<?xml version="1.0" encoding="utf-8"?>
<!-- Generator: Adobe Illustrator 25.0.0, SVG Export Plug-In . SVG Version: 6.00 Build 0)  -->
<svg version="1.1" id="Layer_1" xmlns="http://www.w3.org/2000/svg" xmlns:xlink="http://www.w3.org/1999/xlink" x="0px" y="0px"
	 viewBox="0 0 1685.1 1682.5" style="enable-background:new 0 0 1685.1 1682.5;" xml:space="preserve">
<style type="text/css">
	.st0{fill:#FF9700;}
	.st1{fill:#070707;}
</style>
<ellipse class="st0" cx="842.6" cy="841.3" rx="842.6" ry="841.3"/>
<g>
	<path class="st1" d="M1247.7,609.4c-3.5,1.9-60.1,45.7-76.3,23.9c-9.2-12.4-15.1-27.5-23.2-40.8c-12-19.7-26.6-36.2-40.7-54.2
		C987,383.9,655,364.5,534.4,592.9c-10.3,19.4-14.7,42.5-31.2,43.4c-15.2,0.8-36.4,1.3-50.5-7.2c-14.7-8.9-39.6-20.4-37.1-41.3
		c1.1-9.1,19.7-50.9,33.4-68.7c6.2-8.1,11-17.4,17.9-24.9c2.6-2.8,25.6-32.2,35.7-40c0.6-0.5,49.2-40.8,76.4-56.7
		c214.1-124.9,472.9-77.4,604.6,58.8C1214.5,488.3,1286.6,587.5,1247.7,609.4z"/>
	<path class="st1" d="M512.6,991c-0.1,2.2,0,271.7,0,272.4c-1.6,50.9-65,51.7-74.7,10.8c-0.3-1.4-0.5-1.8-2.2-2.2
		c-46.3-10.2-107.1-165.5-30.4-275c8.8-12.6,20-28.1,32.2-37.5c2.8-2.2,3.3-6.1,4.9-9.2c16-29.7,62.3-19.6,69,0.7
		C515.2,962.6,513,978.8,512.6,991z"/>
	<path class="st1" d="M1169.5,1119.7c0-50,0-99.9,0-149.9c0-15.3,12.7-30.9,27.2-34.4c29.2-7.2,45.1,17.1,46.1,26
		c0.1,1.1,0.8,2.5,2.2,3c9,3.4,13.1,11.8,18.3,18.9c27.1,36.7,32.5,50.7,43.8,91.5c17.7,63.7-7.8,171.1-65.9,212.1
		c-4.3,3-7.4,7.6-11.5,10.9c-11.6,9.2-27.3,10.8-40.4,3.4C1163.9,1286.8,1169.5,1271.6,1169.5,1119.7
		C1169.5,1119.7,1169.5,1119.7,1169.5,1119.7z"/>
	<path class="st1" d="M515.7,1140.4c0-219.4,0-206,0.1-220.4c0.3-33.2,31.4-44.9,46.2-39.5c4.2,1.5,8.9,2.4,12.3,4.9
		c17.8,13.1,17,30.4,17.1,40.8c1,106,0.5,374.4-0.1,394.6c-0.1,4.8-2.7,8.9-4.5,13.3c-14.5,34.2-70.9,24.4-70.9-18.6
		C515.8,1257.2,515.8,1198.8,515.7,1140.4C515.8,1140.4,515.8,1140.4,515.7,1140.4z"/>
	<path class="st1" d="M1165.6,1318.8c0.3,27.4-27.9,47.8-54,34.6c-30.3-15.3-21.4-56.5-21.4-83.6c0-43.7-1.1-87.3-1.1-131
		c0-0.6,2.2-192.1,1-211.2c-3.3-54.5,67.7-59.8,74.4-15C1166.8,929,1165.1,1275.7,1165.6,1318.8z"/>
	<path class="st1" d="M1328.3,1096.6c9-35.4,15.6-48.8,23.4-89.4c11.5-60.2,8.5-59.4-14.6-84.8c-8.4-9.3-14.6-22.9-25.3-29.6
		c-2.7-1.6-5.6-3-7.6-5.4c-8.2-9.8,12.5-20.8,12.6-36.2c0-5.7-10.4-7.3-4.4-19.6c2.4-4.9,2.8-10.1,2-15.3c-0.5-3.1-3.5-5.3-4.2-8.6
		c-2.1-10.7-36.2-69.6-34-82.4c0.4-2.6-1.1-4.5-3.3-4.4c-7.7,0.5-11.7-5.2-16.5-9.4c-2.6-2.3-6.6-3.6-7.5-7.8
		c-11.1-4.3-17.6-14.1-25.6-22c-5.2-5.1-8.9-11.5-8.4-19.5c0.8-14.8,29.6-39.5,46.4-21.6c11.2,11.9,21.5,24.5,29.6,38.7
		c6.1,10.6,9.9,10,6.6,22.1c-0.9,3.3,0.4,4.9,3.3,5c13.9,0.6,14.8,21.5,38.7,60.5c1.9,3.1,6.6,1.2,10.1,0.9
		c8.1-0.7,13-10.1,33.3,3.5c19.3,12.9-8.3,102-14.8,124.3c-0.6,1.9-0.4,3.6,0.9,4.7c22.8,18.2,19.9,0.9,19.9,51.9
		c0,10.5-4,52-7.9,72.5c-15.8,82.7-20.4,114.5-41.5,114.6c-6.2,0-12.4-5.8-14.4-10.9C1320.1,1115.7,1325.4,1107.8,1328.3,1096.6z"/>
	<path class="st1" d="M442.4,633.9c18.2,1,29,13.4,33.5,27.4c3.4,10.7-15.3,27.4-24.3,34.3c-8.9,6.7-24.6,23.6-35.6,24.4
		c-2.5,0.2-3,3.7-2.5,5c3.8,8.8-8.1,21.5-11.9,28.6c-8.2,15.2-14.5,31.5-22.6,46.9c-4.3,12.2-8,16.4-4.7,26.4
		c7.3,22.3-10,15.8-2.1,30.9c3.6,6.8,16.5,21.5,9.2,29.3c-2,2.1-4.7,2.5-6.8,4.1c-0.6,0.5-28.7,30.3-44.9,50.7
		c-5.3,6.7-3.8,18.1-2.9,25.9c3.8,36.1,24.3,117.6,24.5,118.3c2,7.2,14.5,32.4,1.4,45.5c-30.3,30.3-45.4-70.4-50.8-112.9
		c-2-15.9-5.9-71-6-71.7c-0.9-10.5,0.4-20.7,1.5-30.9c0.8-7.9,6.5-13,14.1-16.1c13.4-5.6,4.7-3.4-1.9-42.1c-1.3-7.6-4.4-14.9-6-22.5
		c-1.8-8.9-2.6-18-4.2-26.9c-1.2-6.8-1.4-13.8-0.4-20.4c0.6-3.6-0.3-7.2,1.3-10.8c8.4-18.5,31.3-18.4,37.8-9.3
		c-0.7-1,10.4-3.6,11.6-5.4c23.8-35.7,16.4-30.5,25.9-46.1c1.4-2.4,1.9-5.5,3.7-7.6c3.6-4.4,11.6-9.4,11.5-16.1
		c-0.2-7.6,4.4-14.2,9.3-19.6c14.2-15.8,22.5-31.8,38.4-38.8C439.9,633.9,441.1,633.4,442.4,633.9z"/>
</g>
</svg>
